<?xml version="1.0" encoding="utf-8"?>
<!-- Generator: Adobe Illustrator 26.0.2, SVG Export Plug-In . SVG Version: 6.00 Build 0)  -->
<svg version="1.1" baseProfile="basic" id="Layer_1"
	 xmlns="http://www.w3.org/2000/svg" xmlns:xlink="http://www.w3.org/1999/xlink" x="0px" y="0px" viewBox="0 0 792 612"
	 xml:space="preserve">
<style type="text/css">
	.st0{fill:#DFDDEF;}
</style>
<g>
	<path class="st0" d="M490.87,185.69c-0.93-2.27-2.4-3.8-4.37-4.56c-2.1-0.81-4.66-0.68-7.21,0.37c-0.24,0.1-0.49,0.21-0.74,0.33
		c-22.3,10.63-25.95,38.23-17.09,59.8l23.6,57.48c1.12,2.73-0.19,5.87-2.92,6.99c-35.72,14.67-65.47,53.44-72.81,83.39
		c-0.33,1.32-1.27,2.42-2.53,2.93c-0.84,0.35-1.75,0.41-2.63,0.2c-1.11-0.27-2.04-0.96-2.64-1.93c-0.59-0.98-0.77-2.12-0.5-3.23
		c7.48-30.53,35.24-71.7,70.92-88.53c0.68-0.32,0.99-1.12,0.7-1.81L389.39,94.33c-4.78-11.64-18.14-17.22-29.78-12.44
		c-11.64,4.78-17.23,18.14-12.45,29.78l58.33,142.05c0.27,0.66,0.99,1.01,1.68,0.82c7.48-2.07,17.44-3.1,23.06-4.18
		c1.07-0.21,2.16,0.02,3.07,0.63c0.9,0.61,1.52,1.54,1.72,2.62c0.37,1.9-0.67,3.82-2.46,4.55c-0.25,0.1-0.51,0.18-0.79,0.24
		c-13.85,2.65-36.27,10.24-53.48,17.31c-35.55,14.6-75.5,42.42-94.94,62.49c-0.38,0.39-0.83,0.7-1.33,0.9
		c-1.44,0.59-3.1,0.28-4.22-0.81c-1.55-1.5-1.59-3.99-0.09-5.55c4.27-4.41,11.47-13.17,18.05-18.85c0.46-0.4,0.61-1.04,0.38-1.6
		l-37.45-91.19c-4.78-11.64-18.14-17.22-29.78-12.44c-11.64,4.78-17.22,18.14-12.44,29.78l76.79,187
		C321.66,494.56,401,527.7,470.12,499.32c69.12-28.39,104.87-108.79,76.48-177.91L490.87,185.69z"/>
	<path class="st0" d="M352.88,273.9c0.15,0.36,0.44,0.65,0.81,0.78c0.33,0.13,0.7,0.12,1.03-0.02c0.03-0.01,0.06-0.03,0.09-0.04
		c6.4-3.19,12.93-6.16,19.42-8.82c6.5-2.67,13.23-5.14,20.01-7.37c0.03-0.01,0.07-0.02,0.1-0.04c0.33-0.13,0.59-0.39,0.74-0.71
		c0.16-0.36,0.17-0.76,0.02-1.13L326.71,90.02c-4.78-11.64-18.14-17.22-29.78-12.44c-11.64,4.78-17.23,18.14-12.45,29.78
		L352.88,273.9z"/>
	<path class="st0" d="M304.48,304.39c0.17,0.41,0.52,0.71,0.94,0.83c0.3,0.08,0.61,0.06,0.9-0.06c0.12-0.05,0.23-0.11,0.33-0.19
		c11.4-8.89,23.58-16.97,36.21-24.02c0.62-0.35,0.89-1.11,0.62-1.77l-58.33-142.04c-4.78-11.64-18.14-17.22-29.78-12.44
		c-11.64,4.78-17.22,18.14-12.44,29.78L304.48,304.39z"/>
</g>
<g>
</g>
<g>
</g>
<g>
</g>
<g>
</g>
<g>
</g>
<g>
</g>
</svg>
